<svg width="192" height="192" viewBox="0 0 192 192" fill="none" xmlns="http://www.w3.org/2000/svg">
<rect width="192" height="192" fill="#1B9DFF"/>
<path d="M18.4688 48.4414H46.7402L46.6914 109.818H74.4258V121H18.4688V48.4414ZM86.0469 48.4414H124.426C129.829 48.4414 134.549 48.8971 138.586 49.8086C142.655 50.7201 146.04 52.0221 148.742 53.7148C151.477 55.375 153.527 57.3932 154.895 59.7695C156.262 62.1133 156.945 64.7337 156.945 67.6309C156.945 70.528 156.132 73.2624 154.504 75.834C152.909 78.373 150.565 80.5703 147.473 82.4258C152.551 83.8906 156.343 86.0391 158.85 88.8711C161.356 91.7031 162.609 95.1699 162.609 99.2715C162.609 102.071 161.926 104.773 160.559 107.377C159.224 109.981 157.206 112.292 154.504 114.311C151.835 116.329 148.482 117.956 144.445 119.193C140.409 120.398 135.689 121 130.285 121H86.0469V48.4414ZM117.297 77.9336C119.966 77.9336 122.212 77.6895 124.035 77.2012C125.858 76.6803 127.307 75.9805 128.381 75.1016C129.488 74.2227 130.269 73.2135 130.725 72.0742C131.213 70.9349 131.457 69.7467 131.457 68.5098C131.457 67.2728 131.213 66.0846 130.725 64.9453C130.269 63.806 129.488 62.8132 128.381 61.9668C127.307 61.0879 125.858 60.388 124.035 59.8672C122.212 59.3464 119.966 59.0859 117.297 59.0859H114.318L114.27 77.9336H117.297ZM117.297 110.355C120.194 110.355 122.635 110.046 124.621 109.428C126.607 108.809 128.218 107.963 129.455 106.889C130.692 105.814 131.587 104.561 132.141 103.129C132.694 101.664 132.971 100.102 132.971 98.4414C132.971 96.9766 132.678 95.5443 132.092 94.1445C131.506 92.7448 130.627 91.5078 129.455 90.4336C128.316 89.3268 126.9 88.4479 125.207 87.7969C123.514 87.1133 121.561 86.7715 119.348 86.7715H114.27V110.355H117.297ZM37.4762 142H34.8342C34.6779 141.24 34.4045 140.572 34.0139 139.997C33.6303 139.422 33.1616 138.939 32.6076 138.548C32.0607 138.151 31.4535 137.852 30.7859 137.653C30.1183 137.455 29.4222 137.355 28.6978 137.355C27.3768 137.355 26.18 137.689 25.1076 138.357C24.0423 139.024 23.1935 140.008 22.5614 141.308C21.9364 142.607 21.6239 144.202 21.6239 146.091C21.6239 147.98 21.9364 149.575 22.5614 150.874C23.1935 152.174 24.0423 153.158 25.1076 153.825C26.18 154.493 27.3768 154.827 28.6978 154.827C29.4222 154.827 30.1183 154.727 30.7859 154.528C31.4535 154.33 32.0607 154.035 32.6076 153.644C33.1616 153.246 33.6303 152.76 34.0139 152.185C34.4045 151.602 34.6779 150.935 34.8342 150.182H37.4762C37.2773 151.297 36.9151 152.295 36.3896 153.175C35.864 154.056 35.2106 154.805 34.4293 155.423C33.6481 156.034 32.771 156.499 31.7979 156.819C30.832 157.138 29.7987 157.298 28.6978 157.298C26.837 157.298 25.1822 156.844 23.7333 155.935C22.2844 155.026 21.1445 153.733 20.3136 152.057C19.4826 150.381 19.0671 148.392 19.0671 146.091C19.0671 143.79 19.4826 141.801 20.3136 140.125C21.1445 138.449 22.2844 137.156 23.7333 136.247C25.1822 135.338 26.837 134.884 28.6978 134.884C29.7987 134.884 30.832 135.043 31.7979 135.363C32.771 135.683 33.6481 136.151 34.4293 136.769C35.2106 137.38 35.864 138.126 36.3896 139.006C36.9151 139.88 37.2773 140.878 37.4762 142ZM43.9189 147.156V157H41.4047V135.182H43.9189V143.193H44.1319C44.5154 142.348 45.0907 141.677 45.8578 141.18C46.6319 140.675 47.6618 140.423 48.9473 140.423C50.0623 140.423 51.0389 140.647 51.877 141.094C52.715 141.535 53.3649 142.213 53.8265 143.129C54.2953 144.038 54.5297 145.196 54.5297 146.602V157H52.0154V146.773C52.0154 145.473 51.6781 144.468 51.0034 143.758C50.3358 143.04 49.4089 142.682 48.2228 142.682C47.399 142.682 46.6603 142.856 46.0069 143.204C45.3606 143.552 44.8493 144.06 44.4728 144.727C44.1035 145.395 43.9189 146.205 43.9189 147.156ZM63.9446 157.384C62.9077 157.384 61.9666 157.188 61.1214 156.798C60.2763 156.4 59.6051 155.828 59.108 155.082C58.6108 154.33 58.3622 153.42 58.3622 152.355C58.3622 151.418 58.5469 150.658 58.9162 150.075C59.2855 149.486 59.7791 149.024 60.397 148.69C61.0149 148.357 61.6967 148.108 62.4425 147.945C63.1953 147.774 63.9517 147.639 64.7116 147.54C65.706 147.412 66.5121 147.316 67.13 147.252C67.755 147.181 68.2095 147.064 68.4936 146.901C68.7848 146.737 68.9304 146.453 68.9304 146.048V145.963C68.9304 144.912 68.6428 144.095 68.0675 143.513C67.4993 142.93 66.6364 142.639 65.4787 142.639C64.2784 142.639 63.3374 142.902 62.6555 143.428C61.9737 143.953 61.4943 144.514 61.2173 145.111L58.831 144.259C59.2571 143.264 59.8253 142.49 60.5355 141.936C61.2528 141.375 62.0341 140.984 62.8793 140.764C63.7315 140.537 64.5696 140.423 65.3935 140.423C65.919 140.423 66.5227 140.487 67.2045 140.615C67.8935 140.736 68.5575 140.988 69.1967 141.371C69.843 141.755 70.3793 142.334 70.8054 143.108C71.2315 143.882 71.4446 144.919 71.4446 146.219V157H68.9304V154.784H68.8026C68.6321 155.139 68.348 155.519 67.9503 155.924C67.5526 156.329 67.0234 156.673 66.3629 156.957C65.7024 157.241 64.8963 157.384 63.9446 157.384ZM64.3281 155.125C65.3224 155.125 66.1605 154.93 66.8423 154.539C67.5313 154.148 68.0497 153.644 68.3977 153.026C68.7528 152.408 68.9304 151.759 68.9304 151.077V148.776C68.8239 148.903 68.5895 149.021 68.2273 149.127C67.8722 149.227 67.4602 149.315 66.9915 149.393C66.5298 149.464 66.0788 149.528 65.6385 149.585C65.2053 149.635 64.8537 149.678 64.5838 149.713C63.9304 149.798 63.3196 149.937 62.7514 150.129C62.1903 150.313 61.7358 150.594 61.3878 150.97C61.0469 151.339 60.8764 151.844 60.8764 152.483C60.8764 153.357 61.1996 154.017 61.8459 154.464C62.4993 154.905 63.3267 155.125 64.3281 155.125ZM78.5478 135.182V157H76.0336V135.182H78.5478ZM85.6669 135.182V157H83.1527V135.182H85.6669ZM97.1326 157.341C95.5559 157.341 94.1958 156.993 93.0524 156.297C91.916 155.594 91.0389 154.614 90.421 153.357C89.8102 152.092 89.5048 150.622 89.5048 148.946C89.5048 147.27 89.8102 145.793 90.421 144.514C91.0389 143.229 91.8983 142.227 92.9991 141.51C94.1071 140.786 95.3997 140.423 96.877 140.423C97.7292 140.423 98.5708 140.565 99.4018 140.849C100.233 141.134 100.989 141.595 101.671 142.234C102.353 142.866 102.896 143.705 103.301 144.749C103.706 145.793 103.908 147.078 103.908 148.605V149.67H91.2946V147.497H101.351C101.351 146.574 101.167 145.75 100.797 145.026C100.435 144.301 99.9167 143.729 99.242 143.31C98.5744 142.891 97.786 142.682 96.877 142.682C95.8755 142.682 95.0091 142.93 94.2775 143.428C93.5531 143.918 92.9956 144.557 92.6049 145.345C92.2143 146.134 92.019 146.979 92.019 147.881V149.33C92.019 150.565 92.2321 151.613 92.6582 152.472C93.0914 153.325 93.6916 153.974 94.4586 154.422C95.2257 154.862 96.117 155.082 97.1326 155.082C97.7931 155.082 98.3897 154.99 98.9224 154.805C99.4622 154.614 99.9274 154.33 100.318 153.953C100.709 153.57 101.01 153.094 101.224 152.526L103.653 153.207C103.397 154.031 102.967 154.756 102.363 155.381C101.76 155.999 101.014 156.482 100.126 156.83C99.2385 157.17 98.2406 157.341 97.1326 157.341ZM110.247 147.156V157H107.733V140.636H110.162V143.193H110.375C110.758 142.362 111.341 141.695 112.122 141.19C112.903 140.679 113.912 140.423 115.148 140.423C116.256 140.423 117.225 140.651 118.056 141.105C118.887 141.553 119.533 142.234 119.995 143.151C120.456 144.06 120.687 145.21 120.687 146.602V157H118.173V146.773C118.173 145.487 117.839 144.486 117.172 143.768C116.504 143.044 115.588 142.682 114.423 142.682C113.621 142.682 112.903 142.856 112.271 143.204C111.646 143.552 111.153 144.06 110.79 144.727C110.428 145.395 110.247 146.205 110.247 147.156ZM131.887 163.477C130.672 163.477 129.628 163.321 128.755 163.009C127.881 162.703 127.153 162.298 126.571 161.794C125.995 161.297 125.537 160.764 125.196 160.196L127.199 158.79C127.426 159.088 127.714 159.429 128.062 159.812C128.41 160.203 128.886 160.54 129.49 160.825C130.1 161.116 130.9 161.261 131.887 161.261C133.208 161.261 134.298 160.942 135.157 160.303C136.017 159.663 136.446 158.662 136.446 157.298V153.974H136.233C136.049 154.273 135.786 154.642 135.445 155.082C135.111 155.516 134.628 155.903 133.996 156.244C133.371 156.577 132.526 156.744 131.461 156.744C130.14 156.744 128.953 156.432 127.902 155.807C126.858 155.182 126.031 154.273 125.42 153.08C124.816 151.886 124.515 150.437 124.515 148.733C124.515 147.057 124.809 145.597 125.399 144.354C125.988 143.104 126.809 142.138 127.86 141.457C128.911 140.768 130.125 140.423 131.503 140.423C132.569 140.423 133.414 140.601 134.039 140.956C134.671 141.304 135.154 141.702 135.488 142.149C135.828 142.589 136.091 142.952 136.276 143.236H136.532V140.636H138.961V157.469C138.961 158.875 138.641 160.018 138.002 160.899C137.37 161.787 136.517 162.437 135.445 162.849C134.38 163.268 133.194 163.477 131.887 163.477ZM131.801 154.486C132.81 154.486 133.662 154.255 134.358 153.793C135.054 153.332 135.583 152.668 135.946 151.801C136.308 150.935 136.489 149.898 136.489 148.69C136.489 147.511 136.311 146.471 135.956 145.569C135.601 144.667 135.076 143.96 134.38 143.449C133.684 142.937 132.824 142.682 131.801 142.682C130.736 142.682 129.848 142.952 129.138 143.491C128.435 144.031 127.906 144.756 127.551 145.665C127.203 146.574 127.029 147.582 127.029 148.69C127.029 149.827 127.206 150.832 127.561 151.705C127.924 152.572 128.456 153.254 129.159 153.751C129.87 154.241 130.75 154.486 131.801 154.486ZM150.424 157.341C148.847 157.341 147.487 156.993 146.343 156.297C145.207 155.594 144.33 154.614 143.712 153.357C143.101 152.092 142.796 150.622 142.796 148.946C142.796 147.27 143.101 145.793 143.712 144.514C144.33 143.229 145.189 142.227 146.29 141.51C147.398 140.786 148.691 140.423 150.168 140.423C151.02 140.423 151.862 140.565 152.693 140.849C153.524 141.134 154.28 141.595 154.962 142.234C155.644 142.866 156.187 143.705 156.592 144.749C156.997 145.793 157.199 147.078 157.199 148.605V149.67H144.586V147.497H154.642C154.642 146.574 154.458 145.75 154.088 145.026C153.726 144.301 153.208 143.729 152.533 143.31C151.865 142.891 151.077 142.682 150.168 142.682C149.167 142.682 148.3 142.93 147.569 143.428C146.844 143.918 146.287 144.557 145.896 145.345C145.505 146.134 145.31 146.979 145.31 147.881V149.33C145.31 150.565 145.523 151.613 145.949 152.472C146.382 153.325 146.983 153.974 147.75 154.422C148.517 154.862 149.408 155.082 150.424 155.082C151.084 155.082 151.681 154.99 152.213 154.805C152.753 154.614 153.218 154.33 153.609 153.953C154 153.57 154.301 153.094 154.515 152.526L156.944 153.207C156.688 154.031 156.258 154.756 155.654 155.381C155.051 155.999 154.305 156.482 153.417 156.83C152.529 157.17 151.532 157.341 150.424 157.341Z" fill="white"/>
</svg>
